<?xml version="1.0" standalone="no"?>
<!DOCTYPE svg PUBLIC "-//W3C//DTD SVG 20010904//EN"
 "http://www.w3.org/TR/2001/REC-SVG-20010904/DTD/svg10.dtd">
<svg version="1.0" xmlns="http://www.w3.org/2000/svg"
 width="300.000000pt" height="302.000000pt" viewBox="0 0 300.000000 302.000000"
 preserveAspectRatio="xMidYMid meet">
<metadata>
Created by potrace 1.10, written by Peter Selinger 2001-2011
</metadata>
<g transform="translate(0.000000,302.000000) scale(0.100000,-0.100000)"
fill="#000000" stroke="none">
<path d="M1395 2974 c-16 -2 -65 -9 -108 -15 -83 -11 -327 -74 -337 -87 -3 -4
-25 -16 -50 -27 -128 -55 -252 -137 -244 -160 5 -12 11 -10 33 10 45 43 322
185 360 185 12 0 47 9 79 19 31 11 75 22 96 25 21 4 48 8 60 11 12 2 52 7 91
10 38 4 73 8 76 11 6 3 215 -12 279 -21 19 -3 64 -12 100 -20 36 -9 74 -17 85
-19 11 -2 20 -4 20 -5 0 -1 14 -4 30 -6 17 -2 37 -13 47 -25 11 -13 18 -16 20
-8 5 13 96 -30 238 -112 121 -70 243 -175 348 -298 91 -108 97 -115 105 -136
4 -10 16 -20 27 -23 11 -3 18 -9 15 -13 -3 -4 2 -11 11 -14 9 -4 14 -13 10
-21 -3 -8 -1 -15 4 -15 19 0 43 -51 46 -100 2 -28 12 -62 23 -78 10 -15 29
-67 41 -117 11 -49 25 -97 29 -105 5 -9 8 -34 8 -56 0 -22 3 -46 8 -54 11 -18
13 -50 13 -205 0 -71 1 -143 1 -158 1 -16 -2 -26 -7 -23 -4 2 -8 -14 -9 -37 0
-23 -3 -55 -6 -72 -10 -56 -65 -243 -80 -272 -8 -15 -28 -58 -45 -95 -30 -63
-33 -66 -74 -73 -58 -10 -122 -56 -154 -110 -21 -37 -26 -57 -25 -112 1 -77
10 -64 -144 -191 -167 -138 -395 -243 -630 -290 -240 -49 -532 -24 -792 67
-78 28 -250 120 -328 176 -107 77 -220 185 -306 292 -23 29 -119 179 -119 186
0 3 -13 28 -29 54 -47 81 -92 224 -141 447 -11 53 -11 355 0 397 5 19 11 52
14 74 8 68 71 278 99 332 8 15 26 51 41 78 14 28 29 49 34 48 5 -1 9 3 9 10 0
26 37 87 108 176 41 52 75 100 75 105 -1 19 -110 -106 -165 -189 -357 -539
-331 -1241 63 -1737 232 -291 546 -478 912 -545 152 -27 393 -23 545 9 289 61
522 186 752 401 l32 30 10 -25 c5 -14 28 -41 52 -61 67 -58 164 -63 241 -12
47 31 88 110 88 170 0 83 -75 178 -150 190 l-35 6 40 -15 c22 -8 57 -33 77
-54 109 -117 44 -296 -115 -318 -38 -6 -56 -2 -101 20 -111 54 -150 178 -87
278 32 50 96 88 149 88 30 0 34 5 76 93 124 257 165 478 147 795 -11 189 -136
571 -214 654 -12 13 -48 57 -79 99 -73 97 -201 223 -303 300 -44 32 -147 93
-230 133 -150 74 -240 104 -397 132 -84 15 -308 26 -363 18z"/>
<path d="M1151 2724 c0 -11 3 -14 6 -6 3 7 2 16 -1 19 -3 4 -6 -2 -5 -13z"/>
<path d="M1461 2714 c0 -11 3 -14 6 -6 3 7 2 16 -1 19 -3 4 -6 -2 -5 -13z"/>
<path d="M988 2713 c6 -2 18 -2 25 0 6 3 1 5 -13 5 -14 0 -19 -2 -12 -5z"/>
<path d="M1058 2713 c7 -3 16 -2 19 1 4 3 -2 6 -13 5 -11 0 -14 -3 -6 -6z"/>
<path d="M603 2679 c-30 -19 -48 -20 -320 -22 l-288 -1 284 -6 283 -5 -51 -44
c-29 -24 -50 -46 -47 -49 3 -3 27 16 53 41 27 25 62 56 78 68 59 44 63 53 8
18z"/>
<path d="M1370 2689 c0 -5 9 -9 20 -9 11 0 20 2 20 4 0 2 -9 6 -20 9 -11 3
-20 1 -20 -4z"/>
<path d="M1598 2683 c6 -2 18 -2 25 0 6 3 1 5 -13 5 -14 0 -19 -2 -12 -5z"/>
<path d="M1753 2683 c9 -2 25 -2 35 0 9 3 1 5 -18 5 -19 0 -27 -2 -17 -5z"/>
<path d="M1325 2660 c-3 -6 1 -13 10 -16 19 -8 30 0 20 15 -8 14 -22 14 -30 1z"/>
<path d="M1062 2640 c0 -14 2 -19 5 -12 2 6 2 18 0 25 -3 6 -5 1 -5 -13z"/>
<path d="M1490 2656 c0 -9 40 -13 46 -5 3 5 -6 9 -20 9 -14 0 -26 -2 -26 -4z"/>
<path d="M1658 2653 c6 -2 18 -2 25 0 6 3 1 5 -13 5 -14 0 -19 -2 -12 -5z"/>
<path d="M2603 2653 c76 -2 198 -2 270 0 73 1 11 3 -138 3 -148 0 -208 -2
-132 -3z"/>
<path d="M1237 2634 c-11 -11 3 -24 18 -18 8 4 12 10 9 15 -6 11 -18 12 -27 3z"/>
<path d="M1297 2634 c-8 -8 1 -24 14 -24 5 0 9 7 9 15 0 15 -12 20 -23 9z"/>
<path d="M1720 2620 c20 -13 57 -13 65 0 4 6 -11 10 -37 10 -31 0 -39 -3 -28
-10z"/>
<path d="M1180 2599 c0 -5 9 -9 20 -9 11 0 20 2 20 4 0 2 -9 6 -20 9 -11 3
-20 1 -20 -4z"/>
<path d="M1400 2593 c0 -8 -9 -17 -20 -20 -11 -3 -20 -12 -20 -19 0 -22 -27
-16 -33 6 -4 16 -14 20 -46 20 -30 0 -41 -4 -41 -15 0 -9 -12 -20 -26 -25 -14
-6 -22 -14 -19 -20 4 -6 -16 -10 -52 -10 -56 -1 -93 -16 -93 -38 0 -5 -7 -12
-15 -16 -8 -3 -15 -12 -15 -21 0 -8 -7 -15 -15 -15 -8 0 -15 -7 -15 -15 0 -8
-7 -15 -15 -15 -8 0 -15 -7 -15 -15 0 -8 -7 -15 -15 -15 -8 0 -15 -7 -15 -15
0 -8 -4 -15 -10 -15 -5 0 -28 -18 -50 -40 -33 -33 -39 -45 -34 -65 5 -20 9
-23 20 -15 7 7 10 19 7 27 -4 11 -2 14 5 9 6 -4 16 3 23 16 7 13 26 36 43 52
17 15 52 48 78 72 26 24 51 44 57 44 6 0 10 6 8 13 -1 7 12 13 36 15 20 2 37
7 37 12 0 4 12 11 27 15 15 3 30 10 33 14 23 31 110 55 110 31 0 -20 69 -7 89
16 11 12 16 25 13 29 -4 4 0 5 8 3 8 -1 18 -7 22 -12 3 -5 17 -11 29 -13 13
-2 30 -10 38 -17 11 -10 48 -14 121 -15 116 -2 136 -10 178 -72 29 -43 40 -48
101 -54 53 -4 91 -22 91 -42 0 -7 7 -13 15 -13 15 0 16 -24 2 -47 -5 -8 -4
-13 2 -13 6 0 11 -9 11 -21 0 -13 4 -18 12 -13 7 4 8 3 4 -4 -4 -7 -1 -21 7
-33 19 -26 78 -70 87 -64 5 3 11 -6 14 -19 5 -19 11 -22 31 -18 38 7 31 39 -7
33 -5 0 -8 6 -8 14 0 13 -18 20 -36 13 -4 -2 -10 7 -15 20 -5 12 -15 22 -24
22 -10 0 -15 10 -15 31 0 23 -4 30 -14 26 -12 -5 -16 5 -18 41 -2 34 -7 46
-17 44 -8 -2 -11 3 -8 12 3 8 -2 25 -12 37 -15 18 -27 22 -79 21 -41 0 -61 4
-59 11 1 7 -4 11 -11 9 -7 -1 -17 9 -22 24 -18 45 -67 78 -116 77 -32 -1 -44
3 -44 13 0 8 -10 14 -26 14 -19 0 -25 -4 -20 -15 4 -12 -4 -15 -39 -15 -34 0
-43 3 -39 14 4 11 -4 16 -33 18 -24 2 -37 8 -35 16 1 6 -7 13 -18 14 -68 6
-80 4 -80 -9z"/>
<path d="M1825 2590 c3 -5 15 -10 25 -10 10 0 22 5 25 10 4 6 -7 10 -25 10
-18 0 -29 -4 -25 -10z"/>
<path d="M1943 2578 c8 -13 13 -14 19 -5 12 19 9 26 -11 24 -15 -1 -17 -4 -8
-19z"/>
<path d="M1050 2560 c0 -5 5 -10 10 -10 6 0 10 5 10 10 0 6 -4 10 -10 10 -5 0
-10 -4 -10 -10z"/>
<path d="M1120 2566 c0 -2 9 -6 20 -9 11 -3 20 -1 20 4 0 5 -9 9 -20 9 -11 0
-20 -2 -20 -4z"/>
<path d="M1885 2530 c3 -5 10 -10 16 -10 5 0 9 5 9 10 0 6 -7 10 -16 10 -8 0
-12 -4 -9 -10z"/>
<path d="M1972 2529 c2 -6 8 -10 13 -10 5 0 11 4 13 10 2 6 -4 11 -13 11 -9 0
-15 -5 -13 -11z"/>
<path d="M2030 2470 c0 -5 7 -10 15 -10 8 0 15 5 15 10 0 6 -7 10 -15 10 -8 0
-15 -4 -15 -10z"/>
<path d="M1300 2440 c0 -5 5 -10 11 -10 5 0 7 5 4 10 -3 6 -8 10 -11 10 -2 0
-4 -4 -4 -10z"/>
<path d="M2070 2425 c0 -14 5 -25 10 -25 6 0 10 11 10 25 0 14 -4 25 -10 25
-5 0 -10 -11 -10 -25z"/>
<path d="M840 2409 c0 -5 5 -7 10 -4 6 3 10 8 10 11 0 2 -4 4 -10 4 -5 0 -10
-5 -10 -11z"/>
<path d="M1581 2408 c-1 -14 -10 -18 -37 -18 -24 0 -34 -4 -31 -12 2 -9 20
-12 52 -9 l48 3 -7 -40 c-7 -46 0 -73 17 -67 7 2 29 6 50 8 51 6 55 13 14 21
-37 7 -64 43 -54 71 5 11 -1 19 -17 25 -13 5 -26 15 -29 22 -4 8 -6 7 -6 -4z"/>
<path d="M1092 2390 c0 -14 2 -19 5 -12 2 6 2 18 0 25 -3 6 -5 1 -5 -13z"/>
<path d="M1244 2377 c-6 -7 -9 -17 -7 -24 2 -6 -3 -18 -11 -26 -12 -12 -13
-17 -3 -20 6 -2 0 -8 -15 -12 -17 -4 -29 -16 -33 -32 -7 -30 11 -57 20 -30 3
9 7 24 10 33 3 10 11 13 25 9 30 -9 39 1 31 37 -4 18 -6 39 -4 46 6 17 43 15
43 -2 0 -8 7 -16 15 -20 8 -3 15 -12 15 -21 0 -23 47 -19 53 5 4 17 14 20 56
20 44 0 51 -3 51 -19 0 -28 -11 -52 -21 -45 -5 3 -13 -6 -19 -20 -5 -14 -15
-26 -22 -26 -8 0 -6 -5 5 -11 9 -5 17 -16 17 -22 0 -7 9 -20 20 -30 11 -9 20
-25 20 -34 0 -15 8 -18 50 -17 28 1 53 3 55 6 2 2 6 20 8 40 4 39 -6 50 -41
42 -14 -4 -21 1 -25 16 -4 15 -11 21 -21 17 -11 -5 -16 0 -16 13 0 13 7 20 18
20 10 0 21 3 24 6 10 9 -8 59 -21 59 -6 0 -15 5 -19 10 -4 6 -23 12 -42 14
-48 4 -50 4 -89 -5 -30 -6 -34 -5 -27 11 5 14 4 16 -7 6 -11 -9 -17 -8 -27 4
-15 18 -51 19 -66 2z m296 -198 c8 -1 19 -1 24 0 5 1 4 -5 -4 -13 -14 -18 -50
-22 -50 -6 0 6 -9 20 -19 32 -11 11 -17 27 -14 35 4 10 11 6 27 -16 11 -17 28
-31 36 -32z"/>
<path d="M1300 2279 c0 -5 5 -7 10 -4 6 3 10 8 10 11 0 2 -4 4 -10 4 -5 0 -10
-5 -10 -11z"/>
<path d="M1720 2260 c-10 -6 -11 -10 -2 -10 7 0 12 -14 12 -35 0 -23 -5 -35
-14 -35 -7 0 -16 -9 -19 -20 -3 -11 -12 -20 -20 -20 -9 0 -14 -10 -14 -24 0
-18 6 -25 26 -29 35 -7 42 -1 35 30 -4 16 -2 28 7 33 19 13 29 2 29 -31 0 -19
5 -29 15 -29 10 0 15 -10 15 -29 0 -26 4 -30 33 -33 18 -2 32 -8 31 -15 -1 -7
-2 -31 -2 -54 -1 -22 -6 -38 -11 -35 -5 4 -17 3 -28 -1 -16 -6 -15 -8 7 -13
14 -4 24 -12 22 -19 -1 -7 7 -15 18 -18 11 -3 20 -12 20 -19 0 -8 9 -14 19
-14 18 0 20 -7 18 -92 -2 -83 0 -93 16 -92 10 1 17 -5 17 -17 0 -11 6 -18 13
-17 7 2 13 -10 15 -29 2 -24 -1 -33 -11 -33 -8 0 -17 -13 -20 -30 -4 -18 -13
-30 -22 -30 -22 0 -18 -23 7 -44 20 -17 22 -17 33 -2 7 9 17 16 24 16 6 0 11
14 11 30 0 19 5 30 14 30 9 0 15 14 17 38 6 54 0 82 -17 82 -11 0 -14 18 -14
86 0 50 4 83 9 79 17 -10 23 16 8 33 -9 9 -17 31 -19 47 -2 23 -9 31 -28 33
-14 2 -29 10 -33 18 -10 18 -27 9 -27 -15 0 -18 45 -45 59 -36 5 2 9 -19 9
-48 0 -28 -2 -46 -5 -39 -8 19 -49 62 -60 62 -5 0 -18 10 -29 23 -16 18 -18
26 -8 44 6 13 14 20 17 16 4 -3 7 -4 8 -2 11 76 10 87 -11 82 -12 -3 -20 0
-20 6 0 7 -5 9 -11 6 -6 -4 -13 2 -16 14 -3 12 -8 21 -12 21 -4 0 -22 21 -40
46 -23 33 -33 59 -35 92 -3 48 -11 58 -36 42z m246 -485 c8 -6 11 -21 7 -37
-7 -36 -29 -44 -27 -9 1 14 -2 35 -6 46 -4 11 -5 27 -2 35 5 12 7 11 10 -5 2
-11 10 -24 18 -30z"/>
<path d="M1333 2250 c9 -6 22 -8 27 -5 5 3 7 0 4 -8 -3 -8 0 -18 6 -22 8 -5
11 1 8 16 -2 18 -10 25 -33 27 -25 2 -27 1 -12 -8z"/>
<path d="M2198 2253 c7 -3 16 -2 19 1 4 3 -2 6 -13 5 -11 0 -14 -3 -6 -6z"/>
<path d="M2225 2230 c-8 -13 8 -18 29 -10 19 6 19 7 -2 12 -12 4 -24 2 -27 -2z"/>
<path d="M1146 2195 c-4 -14 -4 -36 0 -49 4 -19 -3 -32 -36 -65 -23 -22 -45
-41 -49 -41 -8 0 -10 -13 -11 -77 -1 -27 -5 -43 -13 -43 -7 0 -4 -5 5 -11 26
-14 68 -1 61 19 -4 10 -10 19 -14 22 -3 3 -10 20 -14 38 -5 25 -3 33 10 38 23
9 85 69 85 83 0 6 7 11 16 11 11 0 14 5 10 16 -3 9 -6 18 -6 20 0 3 -4 2 -10
-1 -6 -4 -10 6 -10 24 0 38 -16 49 -24 16z"/>
<path d="M262 2190 c0 -14 2 -19 5 -12 2 6 2 18 0 25 -3 6 -5 1 -5 -13z"/>
<path d="M805 2160 c4 -32 2 -42 -12 -47 -45 -17 -54 -37 -50 -114 3 -91 21
-94 25 -4 2 49 7 65 17 65 8 0 15 6 15 14 0 8 7 16 15 20 8 3 15 17 15 30 0
14 8 30 18 35 16 10 16 10 0 11 -10 0 -18 7 -18 15 0 8 -7 15 -15 15 -11 0
-14 -9 -10 -40z"/>
<path d="M2260 2156 c0 -14 4 -26 8 -26 11 0 12 39 1 45 -5 4 -9 -5 -9 -19z"/>
<path d="M930 2125 c0 -14 -17 -20 -47 -16 -20 3 -15 -17 4 -21 19 -3 13 -12
-32 -43 -18 -12 -20 -23 -18 -99 1 -52 -2 -86 -8 -86 -6 0 -8 -4 -5 -8 3 -5
-3 -21 -13 -36 -10 -15 -17 -36 -14 -46 3 -10 -2 -29 -10 -41 -16 -27 -17 -69
-2 -69 6 0 11 11 13 25 2 14 10 25 18 25 12 0 15 11 13 47 -3 39 0 48 14 51 9
2 17 12 17 22 0 10 8 21 18 23 15 4 15 5 0 6 -13 1 -16 14 -17 86 -1 71 1 83
14 79 10 -4 15 0 15 15 0 12 6 21 15 21 8 0 15 7 15 16 0 11 8 14 32 12 18 -2
33 2 35 10 3 7 -4 12 -16 12 -12 0 -21 6 -21 15 0 8 -4 15 -10 15 -5 0 -10 -7
-10 -15z"/>
<path d="M2219 2103 c-3 -21 4 -69 11 -73 4 -3 12 -15 19 -28 7 -12 16 -20 22
-17 5 4 9 -1 9 -10 0 -9 -5 -13 -10 -10 -13 8 -8 -18 5 -27 6 -4 -4 -8 -22 -8
-17 0 -35 -4 -38 -10 -3 -6 5 -10 18 -10 14 0 25 -6 24 -12 -1 -36 4 -59 12
-54 15 9 19 -17 16 -86 -3 -57 -1 -68 18 -86 12 -11 33 -19 46 -18 22 1 25 6
26 45 1 34 -3 45 -17 49 -14 3 -17 14 -16 56 1 55 -7 80 -23 71 -5 -4 -9 20
-9 54 0 34 -4 61 -10 61 -5 0 -12 11 -16 25 -3 14 -12 25 -19 25 -17 0 -25 23
-18 49 4 15 1 21 -11 21 -9 0 -16 -3 -17 -7z m121 -378 c0 -8 -4 -15 -9 -15
-5 0 -11 7 -15 15 -3 9 0 15 9 15 8 0 15 -7 15 -15z"/>
<path d="M2320 2090 c6 -11 12 -20 13 -20 2 0 3 9 4 20 1 12 -4 20 -13 20 -12
0 -12 -4 -4 -20z"/>
<path d="M1454 2085 c4 -24 16 -30 16 -7 0 12 -4 22 -9 22 -5 0 -8 -7 -7 -15z"/>
<path d="M1002 2055 c0 -16 2 -22 5 -12 2 9 2 23 0 30 -3 6 -5 -1 -5 -18z"/>
<path d="M1240 2070 c0 -5 5 -10 11 -10 5 0 7 5 4 10 -3 6 -8 10 -11 10 -2 0
-4 -4 -4 -10z"/>
<path d="M1333 2055 c0 -14 3 -25 8 -25 5 0 9 11 9 25 0 14 -4 25 -9 25 -5 0
-8 -11 -8 -25z"/>
<path d="M1596 2071 c-3 -5 0 -11 7 -13 17 -7 38 2 31 13 -7 12 -31 12 -38 0z"/>
<path d="M2190 2071 c0 -6 5 -13 10 -16 6 -3 10 1 10 9 0 9 -4 16 -10 16 -5 0
-10 -4 -10 -9z"/>
<path d="M965 2029 c-6 -30 -12 -38 -36 -43 -29 -6 -29 -6 -13 -31 20 -31 38
-28 42 8 2 15 10 27 18 27 15 0 17 23 4 55 -6 17 -9 15 -15 -16z"/>
<path d="M1205 2040 c-3 -5 1 -10 9 -10 9 0 16 5 16 10 0 6 -4 10 -9 10 -6 0
-13 -4 -16 -10z"/>
<path d="M1490 2034 c0 -8 5 -12 10 -9 6 3 10 10 10 16 0 5 -4 9 -10 9 -5 0
-10 -7 -10 -16z"/>
<path d="M1705 2041 c-3 -5 -1 -12 5 -16 5 -3 10 1 10 9 0 18 -6 21 -15 7z"/>
<path d="M1945 2040 c-3 -5 3 -10 15 -10 12 0 18 5 15 10 -3 6 -10 10 -15 10
-5 0 -12 -4 -15 -10z"/>
<path d="M1971 2021 c-11 -7 -10 -12 7 -29 11 -11 29 -23 41 -27 14 -4 21 -15
21 -30 0 -31 17 -41 25 -15 7 23 6 26 -37 74 -34 39 -36 40 -57 27z"/>
<path d="M1456 2011 c-4 -5 -2 -12 3 -15 5 -4 12 -2 15 3 4 5 2 12 -3 15 -5 4
-12 2 -15 -3z"/>
<path d="M1300 1986 c0 -8 5 -18 10 -21 6 -3 10 3 10 14 0 12 -4 21 -10 21 -5
0 -10 -6 -10 -14z"/>
<path d="M625 1980 c-3 -5 -2 -10 4 -10 5 0 16 -3 25 -6 11 -4 16 -1 16 10 0
18 -35 22 -45 6z"/>
<path d="M1730 1980 c0 -5 5 -10 10 -10 6 0 10 5 10 10 0 6 -4 10 -10 10 -5 0
-10 -4 -10 -10z"/>
<path d="M2350 1980 c0 -5 5 -10 11 -10 5 0 7 5 4 10 -3 6 -8 10 -11 10 -2 0
-4 -4 -4 -10z"/>
<path d="M590 1935 c0 -14 5 -25 10 -25 6 0 10 11 10 25 0 14 -4 25 -10 25 -5
0 -10 -11 -10 -25z"/>
<path d="M1335 1950 c-8 -13 9 -20 24 -11 10 6 9 10 -3 14 -8 3 -18 2 -21 -3z"/>
<path d="M1605 1950 c-3 -5 1 -10 9 -10 9 0 16 5 16 10 0 6 -4 10 -9 10 -6 0
-13 -4 -16 -10z"/>
<path d="M2410 1950 c0 -13 18 -22 24 -11 3 5 -1 11 -9 15 -8 3 -15 1 -15 -4z"/>
<path d="M1258 1943 c6 -2 18 -2 25 0 6 3 1 5 -13 5 -14 0 -19 -2 -12 -5z"/>
<path d="M1462 1920 c0 -14 2 -19 5 -12 2 6 2 18 0 25 -3 6 -5 1 -5 -13z"/>
<path d="M679 1908 c-2 -28 0 -49 7 -67 3 -10 7 -11 19 -1 11 9 12 17 5 30 -6
11 -6 21 -1 24 5 4 12 0 15 -6 2 -7 3 -2 2 12 -4 35 -45 42 -47 8z"/>
<path d="M885 1920 c-3 -5 3 -10 14 -10 12 0 21 5 21 10 0 6 -6 10 -14 10 -8
0 -18 -4 -21 -10z"/>
<path d="M1695 1920 c-3 -5 -2 -10 4 -10 6 0 8 -7 5 -15 -4 -9 0 -15 10 -15
10 0 13 6 10 15 -4 9 0 15 7 15 11 0 11 3 -1 10 -19 12 -27 12 -35 0z"/>
<path d="M530 1900 c0 -11 4 -20 8 -20 4 0 8 9 9 20 1 11 -2 20 -8 20 -5 0 -9
-9 -9 -20z"/>
<path d="M2066 1904 c-7 -19 12 -47 26 -38 6 4 9 -11 8 -37 -4 -66 -1 -79 15
-79 10 0 15 -11 15 -35 0 -32 -2 -35 -30 -35 -25 0 -30 -4 -30 -25 0 -16 6
-25 15 -25 11 0 15 -12 15 -50 0 -35 -4 -50 -13 -50 -23 0 -47 -35 -47 -69 0
-26 -3 -32 -15 -27 -9 3 -23 -3 -32 -14 -10 -11 -23 -20 -30 -20 -7 0 -13 -4
-13 -9 0 -5 -9 -11 -20 -14 -11 -3 -20 -12 -20 -21 0 -9 -7 -16 -15 -16 -25 0
-17 -17 10 -23 18 -3 29 1 36 14 12 23 59 26 59 5 0 -25 18 -28 40 -6 11 11
20 24 20 30 0 5 9 14 19 20 13 6 17 17 14 30 -4 14 0 20 11 20 12 0 16 10 16
40 0 33 3 40 19 40 16 0 20 -8 23 -37 2 -30 7 -37 21 -35 10 2 17 -3 17 -13 0
-8 -7 -15 -16 -15 -9 0 -18 -9 -21 -20 -3 -11 -14 -20 -24 -20 -11 0 -19 -5
-19 -11 0 -6 9 -9 19 -6 19 4 20 -1 19 -74 0 -60 -4 -81 -15 -88 -25 -14 -5
-31 37 -31 l39 0 -4 48 c-2 26 -4 53 -4 60 -1 7 -5 10 -11 7 -11 -7 -11 -7
-14 53 -1 24 1 45 6 48 4 3 5 -2 2 -10 -3 -9 -1 -16 5 -16 12 0 14 8 11 65 -1
22 -6 42 -10 45 -5 3 -12 18 -15 33 -5 20 -15 30 -34 33 -26 6 -27 8 -27 68 1
40 6 69 16 80 21 26 23 57 3 78 -14 16 -15 23 -5 39 10 15 10 19 0 17 -8 -2
-13 8 -13 27 -1 28 -31 84 -46 85 -4 0 -10 -7 -13 -16z m28 -413 c3 -5 -1 -14
-9 -21 -13 -10 -15 -9 -15 9 0 21 14 28 24 12z m-24 -66 c0 -9 -7 -18 -15 -21
-8 -4 -15 -12 -15 -19 0 -20 -17 -27 -37 -16 -16 8 -15 11 9 21 14 7 29 21 31
31 6 23 27 25 27 4z m130 -209 c0 -3 -4 -8 -10 -11 -5 -3 -10 -1 -10 4 0 6 5
11 10 11 6 0 10 -2 10 -4z"/>
<path d="M2163 1885 c1 -19 8 -37 15 -40 6 -2 12 -14 12 -25 0 -21 14 -27 25
-10 9 15 -6 60 -21 60 -8 0 -14 10 -14 25 0 14 -4 25 -9 25 -6 0 -9 -16 -8
-35z"/>
<path d="M1382 1899 c-13 -5 -72 -7 -130 -6 -59 2 -113 2 -119 -1 -36 -12 2
-17 152 -18 91 -1 165 2 165 6 0 15 -45 27 -68 19z"/>
<path d="M930 1840 c0 -35 -4 -60 -10 -60 -19 0 -48 -35 -51 -60 -4 -44 1 -60
17 -60 14 0 16 -12 13 -82 -4 -83 -4 -83 20 -80 25 2 63 35 73 62 8 22 -9 60
-27 60 -11 0 -15 12 -15 50 0 42 3 50 18 50 11 0 33 16 51 35 24 27 30 41 25
60 -3 14 -12 25 -20 25 -8 0 -14 7 -14 15 0 8 -4 15 -10 15 -13 0 -12 -20 3
-50 11 -23 9 -28 -29 -65 -22 -22 -44 -48 -47 -58 -7 -19 -28 -19 -34 -1 -2 5
9 23 24 40 32 34 56 91 42 99 -4 3 -6 19 -2 35 4 23 2 30 -11 30 -13 0 -16
-11 -16 -60z m24 -256 c8 -22 8 -24 -8 -24 -18 0 -29 16 -21 30 9 15 22 12 29
-6z"/>
<path d="M1020 1885 c0 -8 5 -15 10 -15 6 0 10 7 10 15 0 8 -4 15 -10 15 -5 0
-10 -7 -10 -15z"/>
<path d="M1484 1888 c-2 -4 -1 -9 3 -11 12 -8 171 -2 179 6 8 8 -4 9 -104 11
-41 1 -76 -2 -78 -6z"/>
<path d="M1757 1893 c-12 -11 -8 -23 8 -23 8 0 15 7 15 15 0 16 -12 20 -23 8z"/>
<path d="M526 1832 c-3 -6 -1 -14 5 -17 15 -10 25 3 12 16 -7 7 -13 7 -17 1z"/>
<path d="M632 1813 c-12 -13 -20 -28 -17 -33 3 -6 -1 -7 -11 -3 -15 5 -16 -1
-12 -57 4 -55 2 -63 -14 -68 -10 -2 -18 -10 -18 -17 0 -8 -8 -15 -17 -17 -14
-3 -17 -12 -14 -51 2 -41 0 -47 -17 -47 -23 0 -25 -32 -2 -41 8 -3 15 -12 15
-20 0 -8 12 -15 28 -17 35 -4 66 28 60 62 -4 17 0 25 16 29 18 4 20 10 15 46
-4 25 -2 41 4 41 6 0 18 14 26 31 l16 31 -26 -5 c-27 -5 -27 -5 -21 50 3 30
13 63 22 73 9 10 14 24 10 29 -9 15 -17 12 -43 -16z m-11 -170 c-8 -14 -10 -9
-10 27 1 42 1 43 10 18 7 -18 7 -33 0 -45z m-31 -33 c0 -5 7 -10 15 -10 19 0
20 -34 1 -50 -8 -6 -16 -21 -18 -33 -2 -12 -12 -23 -22 -25 -17 -4 -18 0 -13
34 4 20 12 41 19 46 10 7 10 11 1 14 -7 3 -9 12 -6 20 6 16 23 19 23 4z"/>
<path d="M1086 1817 c-9 -33 -8 -37 9 -37 9 0 15 9 15 24 0 33 -16 42 -24 13z"/>
<path d="M1375 1830 c-18 -7 -19 -8 -2 -15 21 -9 50 1 42 15 -7 12 -13 12 -40
0z"/>
<path d="M1540 1830 c-18 -11 18 -22 37 -11 13 7 12 9 -5 13 -11 3 -25 2 -32
-2z"/>
<path d="M1665 1831 c-7 -12 12 -24 25 -16 11 7 4 25 -10 25 -5 0 -11 -4 -15
-9z"/>
<path d="M1795 1830 c-6 -10 1 -14 18 -11 5 1 11 -8 14 -19 3 -11 9 -20 13
-20 5 0 6 9 3 20 -7 25 -39 45 -48 30z"/>
<path d="M1240 1820 c0 -13 11 -13 30 0 12 8 11 10 -7 10 -13 0 -23 -4 -23
-10z"/>
<path d="M1490 1795 c-6 -60 -4 -110 5 -112 12 -3 14 70 4 107 -6 21 -8 22 -9
5z"/>
<path d="M1610 1796 c0 -9 7 -16 16 -16 17 0 14 22 -4 28 -7 2 -12 -3 -12 -12z"/>
<path d="M2222 1789 c-14 -36 -10 -74 8 -74 10 0 16 12 18 39 4 47 -13 70 -26
35z"/>
<path d="M685 1790 c3 -5 8 -10 11 -10 2 0 4 5 4 10 0 6 -5 10 -11 10 -5 0 -7
-4 -4 -10z"/>
<path d="M1313 1793 c9 -2 23 -2 30 0 6 3 -1 5 -18 5 -16 0 -22 -2 -12 -5z"/>
<path d="M1421 1778 c-9 -15 -10 -23 -3 -26 7 -2 9 -21 5 -54 -5 -41 -3 -50 8
-46 10 3 14 24 14 76 0 40 -2 72 -5 72 -3 0 -11 -10 -19 -22z"/>
<path d="M2410 1790 c0 -5 5 -10 10 -10 6 0 10 5 10 10 0 6 -4 10 -10 10 -5 0
-10 -4 -10 -10z"/>
<path d="M1350 1768 c0 -22 12 -58 19 -58 10 0 31 52 25 61 -8 14 -44 11 -44
-3z"/>
<path d="M1534 1769 c-3 -6 -1 -16 5 -22 6 -6 11 -20 11 -31 1 -16 5 -13 19
14 14 25 16 37 8 42 -17 11 -35 10 -43 -3z"/>
<path d="M725 1760 c-3 -5 -1 -10 4 -10 6 0 11 5 11 10 0 6 -2 10 -4 10 -3 0
-8 -4 -11 -10z"/>
<path d="M1120 1760 c0 -5 9 -10 20 -10 11 0 20 5 20 10 0 6 -9 10 -20 10 -11
0 -20 -4 -20 -10z"/>
<path d="M1210 1755 c0 -9 -9 -15 -25 -15 -14 0 -25 -5 -25 -11 0 -6 14 -9 33
-7 19 2 31 8 30 16 -2 8 9 12 32 12 19 0 35 5 35 10 0 6 -18 10 -40 10 -29 0
-40 -4 -40 -15z"/>
<path d="M1650 1760 c0 -5 11 -10 25 -10 14 0 25 5 25 10 0 6 -11 10 -25 10
-14 0 -25 -4 -25 -10z"/>
<path d="M1734 1754 c3 -9 6 -19 6 -23 0 -4 6 -8 13 -8 11 0 11 6 3 24 -12 25
-32 32 -22 7z"/>
<path d="M1791 1741 c-10 -6 -10 -10 -1 -16 13 -8 24 -1 19 14 -3 6 -10 7 -18
2z"/>
<path d="M2040 1720 c0 -16 5 -30 10 -30 6 0 10 14 10 30 0 17 -4 30 -10 30
-5 0 -10 -13 -10 -30z"/>
<path d="M1060 1728 c0 -9 -8 -22 -17 -27 -15 -9 -14 -10 10 -11 28 0 34 14
17 40 -8 13 -10 13 -10 -2z"/>
<path d="M2410 1730 c0 -5 5 -10 10 -10 6 0 10 5 10 10 0 6 -4 10 -10 10 -5 0
-10 -4 -10 -10z"/>
<path d="M686 1711 c-4 -7 -5 -15 -2 -18 9 -9 19 4 14 18 -4 11 -6 11 -12 0z"/>
<path d="M2194 1638 c4 -46 12 -85 18 -89 6 -4 12 -22 14 -40 2 -19 9 -35 14
-37 16 -6 11 -29 -7 -36 -14 -6 -15 -9 -3 -16 20 -12 24 -60 6 -74 -20 -14
-25 -57 -9 -63 7 -3 17 7 22 20 6 14 15 28 20 32 7 4 10 42 9 100 -2 81 -4 94
-20 98 -12 3 -16 11 -12 21 11 28 -4 66 -23 59 -14 -5 -15 -1 -10 30 6 41 -1
77 -15 77 -7 0 -8 -30 -4 -82z"/>
<path d="M1110 1701 c0 -6 5 -13 10 -16 6 -3 10 1 10 9 0 9 -4 16 -10 16 -5 0
-10 -4 -10 -9z"/>
<path d="M1815 1700 c3 -5 15 -10 26 -10 11 0 17 5 14 10 -3 6 -15 10 -26 10
-11 0 -17 -4 -14 -10z"/>
<path d="M709 1663 c14 -27 4 -116 -14 -126 -8 -4 -15 -17 -15 -27 0 -11 -4
-20 -10 -20 -5 0 -10 -15 -10 -33 0 -17 -4 -46 -9 -64 -8 -26 -6 -34 13 -50
35 -30 67 -36 73 -12 3 10 14 19 25 19 15 0 18 5 13 23 -4 12 -13 27 -20 32
-23 19 -26 51 -6 73 10 12 25 22 34 22 32 0 26 60 -7 72 -6 1 -9 22 -7 46 2
33 -1 42 -13 42 -9 0 -16 5 -16 10 0 6 -9 10 -20 10 -17 0 -19 -4 -11 -17z
m32 -154 c-5 -13 -10 -18 -10 -11 -1 7 -6 10 -12 6 -6 -3 -3 6 7 21 20 31 30
21 15 -16z m-31 -61 c0 -5 -4 -6 -10 -3 -5 3 -10 -3 -10 -15 0 -12 4 -19 9
-15 10 5 31 -24 31 -43 0 -11 -37 -4 -44 7 -3 3 -7 25 -11 48 -5 38 -4 41 15
36 11 -3 20 -10 20 -15z"/>
<path d="M1300 1670 c0 -5 5 -10 10 -10 6 0 10 5 10 10 0 6 -4 10 -10 10 -5 0
-10 -4 -10 -10z"/>
<path d="M1700 1655 c0 -14 5 -25 10 -25 6 0 10 11 10 25 0 14 -4 25 -10 25
-5 0 -10 -11 -10 -25z"/>
<path d="M1485 1646 c-16 -17 -6 -55 18 -68 21 -12 376 -21 405 -10 9 3 10 8
2 18 -7 7 -17 11 -24 8 -7 -3 -94 -6 -194 -7 -176 -2 -182 -1 -183 18 -1 34
-13 54 -24 41z"/>
<path d="M1420 1610 c0 -12 -9 -24 -22 -29 -26 -9 -10 -22 19 -15 31 8 41 64
12 64 -5 0 -9 -9 -9 -20z"/>
<path d="M2347 1614 c-8 -8 1 -24 14 -24 5 0 9 7 9 15 0 15 -12 20 -23 9z"/>
<path d="M1016 1582 c-3 -5 8 -13 25 -19 17 -7 31 -7 35 -2 3 5 21 9 40 9 19
0 33 4 30 9 -7 11 -123 13 -130 3z"/>
<path d="M1245 1580 c-30 -8 -30 -8 8 -9 20 0 37 4 37 9 0 11 -2 11 -45 0z"/>
<path d="M1330 1580 c0 -5 7 -10 16 -10 8 0 12 5 9 10 -3 6 -10 10 -16 10 -5
0 -9 -4 -9 -10z"/>
<path d="M2388 1573 c7 -3 16 -2 19 1 4 3 -2 6 -13 5 -11 0 -14 -3 -6 -6z"/>
<path d="M2918 1573 c6 -2 18 -2 25 0 6 3 1 5 -13 5 -14 0 -19 -2 -12 -5z"/>
<path d="M1371 1544 c0 -11 3 -14 6 -6 3 7 2 16 -1 19 -3 4 -6 -2 -5 -13z"/>
<path d="M2338 1552 c-26 -5 -22 -22 5 -18 12 1 21 6 20 10 -2 11 -6 13 -25 8z"/>
<path d="M1188 1543 c7 -3 16 -2 19 1 4 3 -2 6 -13 5 -11 0 -14 -3 -6 -6z"/>
<path d="M1116 1521 c-4 -5 -2 -12 3 -15 5 -4 12 -2 15 3 4 5 2 12 -3 15 -5 4
-12 2 -15 -3z"/>
<path d="M1572 1521 c-11 -7 -10 -10 3 -15 23 -9 25 -8 25 9 0 17 -9 19 -28 6z"/>
<path d="M1855 1510 c4 -6 11 -8 16 -5 14 9 11 15 -7 15 -8 0 -12 -5 -9 -10z"/>
<path d="M807 1493 c-13 -13 -7 -52 11 -63 16 -9 16 -11 0 -20 -14 -8 -16 -21
-11 -71 5 -55 3 -60 -13 -57 -16 2 -19 -4 -21 -35 0 -21 5 -44 13 -52 8 -7 14
-19 14 -25 0 -7 -8 -2 -18 10 -11 13 -24 20 -30 16 -23 -14 -11 -76 14 -76 8
0 14 -6 14 -12 0 -7 5 -5 11 5 5 9 17 17 24 17 16 0 18 16 15 85 -1 22 2 37 6
33 17 -17 31 14 26 57 -4 41 -3 45 17 45 11 0 21 -5 21 -10 0 -6 13 -23 28
-38 16 -15 31 -36 35 -46 8 -20 -10 -49 -24 -40 -5 3 -9 -15 -9 -39 0 -36 -4
-46 -20 -50 -28 -7 -15 -38 13 -33 12 3 26 5 30 5 4 1 7 7 6 14 -4 35 2 78 11
72 6 -3 10 -2 10 4 0 5 7 17 16 26 18 17 54 12 67 -11 4 -8 21 -14 37 -14 15
0 30 -5 32 -11 5 -15 88 -30 88 -16 0 6 10 2 22 -9 19 -15 20 -16 9 -1 -17 21
-8 22 24 1 14 -9 25 -23 25 -30 0 -8 7 -14 16 -14 8 0 13 4 10 9 -3 5 1 12 10
15 24 9 8 24 -21 18 -22 -4 -25 -1 -26 24 -1 16 0 34 1 39 2 6 2 36 1 68 -2
47 1 57 14 57 9 0 19 9 22 20 4 16 14 20 49 20 31 0 44 4 44 14 0 18 77 17 85
-1 2 -7 21 -13 41 -13 27 0 43 -7 62 -27 23 -25 26 -38 28 -111 2 -67 -1 -84
-14 -92 -15 -8 -15 -11 -2 -21 12 -9 12 -10 -4 -5 -10 4 -34 4 -53 0 l-33 -6
32 -17 c26 -13 35 -14 41 -4 4 7 17 13 28 13 11 0 18 3 15 8 -11 19 23 40 76
46 56 7 86 25 73 46 -3 5 -15 10 -27 10 -15 0 -19 -5 -15 -19 4 -16 0 -19 -24
-19 -40 1 -62 39 -65 108 0 30 -2 62 -3 70 -1 15 -44 40 -67 40 -7 0 -20 8
-30 18 -14 13 -35 17 -102 17 -59 0 -87 -4 -89 -12 -3 -7 -12 -13 -20 -13 -8
0 -33 -18 -55 -40 -38 -37 -40 -43 -36 -90 2 -34 -1 -50 -9 -50 -6 0 -13 -10
-15 -22 -3 -20 -8 -23 -43 -20 -22 2 -44 10 -48 18 -4 8 -21 14 -36 14 -16 0
-31 7 -35 15 -3 8 -12 15 -20 15 -9 0 -29 14 -46 30 -17 17 -33 30 -36 30 -2
0 -24 20 -48 45 -25 25 -49 45 -55 45 -6 0 -11 9 -11 20 0 11 -7 20 -15 20
-10 0 -15 10 -15 30 0 29 -9 38 -23 23z m51 -115 c-6 -18 -28 -21 -28 -4 0 9
7 16 16 16 9 0 14 -5 12 -12z"/>
<path d="M1202 1493 c-36 -4 -41 -7 -32 -18 7 -8 17 -12 23 -8 5 3 23 6 38 7
16 1 29 5 30 11 1 12 -4 12 -59 8z"/>
<path d="M1295 1490 c-8 -13 15 -24 27 -12 6 6 4 11 -6 15 -8 3 -18 2 -21 -3z"/>
<path d="M1395 1491 c-3 -5 -1 -12 5 -16 5 -3 10 1 10 9 0 18 -6 21 -15 7z"/>
<path d="M1628 1492 c-14 -6 -12 -10 10 -26 14 -11 22 -15 19 -9 -4 6 -2 13 5
15 6 2 8 10 4 16 -8 13 -13 14 -38 4z"/>
<path d="M1732 1492 c-23 -2 -40 -7 -38 -11 5 -8 84 -6 93 3 8 8 -12 11 -55 8z"/>
<path d="M410 1479 c0 -5 5 -7 10 -4 6 3 10 8 10 11 0 2 -4 4 -10 4 -5 0 -10
-5 -10 -11z"/>
<path d="M1580 1460 c0 -5 5 -10 10 -10 6 0 10 5 10 10 0 6 -4 10 -10 10 -5 0
-10 -4 -10 -10z"/>
<path d="M1270 1439 c0 -11 5 -17 10 -14 6 3 10 13 10 21 0 8 -4 14 -10 14 -5
0 -10 -9 -10 -21z"/>
<path d="M2323 1405 c0 -33 2 -45 4 -27 2 18 2 45 0 60 -2 15 -4 0 -4 -33z"/>
<path d="M2907 1438 c-2 -7 -1 -22 4 -33 6 -16 8 -14 8 13 1 33 -4 41 -12 20z"/>
<path d="M377 1433 c-2 -5 -1 -17 3 -27 6 -19 7 -19 12 2 6 21 -6 40 -15 25z"/>
<path d="M1120 1420 c0 -5 5 -10 10 -10 6 0 10 5 10 10 0 6 -4 10 -10 10 -5 0
-10 -4 -10 -10z"/>
<path d="M1735 1420 c4 -6 11 -8 16 -5 14 9 11 15 -7 15 -8 0 -12 -5 -9 -10z"/>
<path d="M2810 1420 c0 -5 5 -10 10 -10 6 0 10 5 10 10 0 6 -4 10 -10 10 -5 0
-10 -4 -10 -10z"/>
<path d="M470 1395 c0 -8 5 -15 10 -15 6 0 10 7 10 15 0 8 -4 15 -10 15 -5 0
-10 -7 -10 -15z"/>
<path d="M1680 1400 c0 -5 5 -10 11 -10 5 0 7 5 4 10 -3 6 -8 10 -11 10 -2 0
-4 -4 -4 -10z"/>
<path d="M560 1392 c0 -4 11 -8 25 -8 14 0 25 4 25 8 0 4 -11 8 -25 8 -14 0
-25 -4 -25 -8z"/>
<path d="M1703 1374 c-3 -8 -1 -20 6 -27 8 -8 11 -4 11 16 0 30 -7 35 -17 11z"/>
<path d="M1853 1375 c-9 -10 -9 -16 -2 -20 14 -9 22 0 17 18 -2 13 -5 13 -15
2z"/>
<path d="M2380 1370 c0 -5 5 -10 11 -10 5 0 7 5 4 10 -3 6 -8 10 -11 10 -2 0
-4 -4 -4 -10z"/>
<path d="M1760 1356 c0 -8 5 -18 10 -21 6 -3 10 3 10 14 0 12 -4 21 -10 21 -5
0 -10 -6 -10 -14z"/>
<path d="M576 1325 c-19 -28 -20 -35 -6 -35 6 0 10 6 10 14 0 7 9 16 21 19 12
3 18 10 14 16 -10 17 -21 13 -39 -14z"/>
<path d="M525 1330 c-3 -6 1 -7 9 -4 18 7 21 14 7 14 -6 0 -13 -4 -16 -10z"/>
<path d="M1092 1315 c0 -16 2 -22 5 -12 2 9 2 23 0 30 -3 6 -5 -1 -5 -18z"/>
<path d="M1360 1330 c0 -5 14 -10 30 -10 17 0 30 5 30 10 0 6 -13 10 -30 10
-16 0 -30 -4 -30 -10z"/>
<path d="M1480 1330 c0 -5 11 -10 24 -10 14 0 28 5 31 10 4 6 -7 10 -24 10
-17 0 -31 -4 -31 -10z"/>
<path d="M1550 1299 c0 -18 -6 -20 -48 -18 -55 3 -83 -8 -61 -22 29 -18 93
-10 117 15 26 28 27 32 7 40 -10 4 -15 -1 -15 -15z"/>
<path d="M1950 1304 c0 -8 -13 -20 -30 -25 -16 -6 -30 -15 -30 -20 0 -5 -18
-9 -40 -9 -41 0 -50 -9 -27 -28 8 -7 18 -7 27 -2 24 16 38 11 43 -12 l4 -23 2
23 c0 12 6 22 12 22 6 0 9 6 6 14 -4 9 0 13 11 12 18 -3 25 -52 10 -72 -5 -7
-2 -16 6 -23 12 -10 16 -8 21 8 3 12 13 21 20 21 25 0 27 20 2 29 -19 8 -23
15 -20 35 3 14 12 26 19 26 8 0 14 5 14 10 0 6 1 13 3 17 1 4 -10 9 -25 10
-19 1 -28 -3 -28 -13z"/>
<path d="M630 1302 c0 -5 7 -13 16 -16 10 -4 14 -1 12 6 -5 15 -28 23 -28 10z"/>
<path d="M1335 1300 c-3 -5 -1 -10 4 -10 6 0 11 5 11 10 0 6 -2 10 -4 10 -3 0
-8 -4 -11 -10z"/>
<path d="M1790 1300 c0 -5 11 -10 25 -10 14 0 25 5 25 10 0 6 -11 10 -25 10
-14 0 -25 -4 -25 -10z"/>
<path d="M2068 1285 c-6 -29 -5 -30 16 -9 9 8 14 20 11 25 -11 16 -23 9 -27
-16z"/>
<path d="M590 1270 c0 -6 7 -10 15 -10 8 0 15 2 15 4 0 2 -7 6 -15 10 -8 3
-15 1 -15 -4z"/>
<path d="M685 1270 c-3 -5 3 -10 15 -10 12 0 18 5 15 10 -3 6 -10 10 -15 10
-5 0 -12 -4 -15 -10z"/>
<path d="M1176 1272 c-2 -4 -1 -14 3 -21 6 -10 10 -9 14 3 6 16 -8 32 -17 18z"/>
<path d="M1355 1249 c-12 -18 7 -30 46 -27 24 1 39 7 39 15 0 7 -6 14 -12 14
-7 1 -25 3 -40 5 -15 1 -30 -1 -33 -7z"/>
<path d="M660 1240 c0 -5 5 -10 11 -10 5 0 7 5 4 10 -3 6 -8 10 -11 10 -2 0
-4 -4 -4 -10z"/>
<path d="M2858 1233 c7 -3 16 -2 19 1 4 3 -2 6 -13 5 -11 0 -14 -3 -6 -6z"/>
<path d="M1503 1212 c-9 -6 -7 -11 7 -20 20 -12 36 -1 25 18 -7 12 -16 12 -32
2z"/>
<path d="M2075 1210 c-3 -5 1 -10 10 -10 9 0 13 5 10 10 -3 6 -8 10 -10 10 -2
0 -7 -4 -10 -10z"/>
<path d="M686 1163 c10 -40 14 -41 14 -5 0 18 -5 32 -10 32 -6 0 -8 -11 -4
-27z"/>
<path d="M1387 1184 c-9 -10 2 -24 19 -24 8 0 14 7 14 15 0 15 -21 21 -33 9z"/>
<path d="M2040 1180 c0 -5 5 -10 10 -10 6 0 10 5 10 10 0 6 -4 10 -10 10 -5 0
-10 -4 -10 -10z"/>
<path d="M1971 1147 c-17 -26 -23 -67 -10 -67 5 0 9 4 9 10 0 5 7 7 15 4 15
-6 19 4 15 41 -3 32 -14 36 -29 12z"/>
<path d="M2261 1154 c0 -11 3 -14 6 -6 3 7 2 16 -1 19 -3 4 -6 -2 -5 -13z"/>
<path d="M1448 1143 c-3 -14 -13 -18 -48 -18 -25 0 -45 -4 -45 -10 0 -5 25
-10 55 -11 42 0 60 4 77 20 25 24 21 36 -12 36 -14 0 -25 -7 -27 -17z"/>
<path d="M1108 1143 c7 -3 16 -2 19 1 4 3 -2 6 -13 5 -11 0 -14 -3 -6 -6z"/>
<path d="M2103 1130 c-1 -11 2 -22 8 -25 5 -4 9 3 9 14 0 26 -15 35 -17 11z"/>
<path d="M1031 1118 c0 -10 -5 -19 -11 -19 -5 -1 -14 -2 -20 -3 -5 0 -11 -5
-12 -10 -4 -12 91 -16 98 -5 3 5 -6 9 -20 9 -18 0 -26 6 -29 23 -3 14 -5 16
-6 5z"/>
<path d="M2030 1116 c0 -9 30 -14 35 -6 4 6 -3 10 -14 10 -12 0 -21 -2 -21 -4z"/>
<path d="M2170 1112 c0 -5 14 -7 30 -4 17 2 30 6 30 8 0 2 -13 4 -30 4 -16 0
-30 -4 -30 -8z"/>
<path d="M1211 1084 c0 -11 3 -14 6 -6 3 7 2 16 -1 19 -3 4 -6 -2 -5 -13z"/>
<path d="M1270 1085 c0 -9 5 -15 11 -13 6 2 11 8 11 13 0 5 -5 11 -11 13 -6 2
-11 -4 -11 -13z"/>
<path d="M1330 1083 c0 -5 5 -15 10 -23 7 -12 9 -10 7 8 -1 19 -17 33 -17 15z"/>
<path d="M1503 1083 c9 -2 23 -2 30 0 6 3 -1 5 -18 5 -16 0 -22 -2 -12 -5z"/>
<path d="M1980 1061 c0 -10 -3 -26 -6 -35 -4 -11 -1 -16 10 -16 18 0 23 54 6
65 -5 3 -10 -3 -10 -14z"/>
<path d="M720 1060 c0 -5 5 -10 11 -10 5 0 7 5 4 10 -3 6 -8 10 -11 10 -2 0
-4 -4 -4 -10z"/>
<path d="M900 1045 c0 -13 -6 -28 -14 -32 -14 -8 -26 -96 -15 -107 2 -2 13 2
23 10 11 8 14 14 8 14 -17 0 -15 47 3 54 17 6 22 86 5 86 -5 0 -10 -11 -10
-25z"/>
<path d="M1106 1061 c-3 -5 1 -11 9 -15 8 -3 15 -1 15 4 0 13 -18 22 -24 11z"/>
<path d="M2135 1050 c4 -6 11 -8 16 -5 14 9 11 15 -7 15 -8 0 -12 -5 -9 -10z"/>
<path d="M1270 1016 c0 -8 5 -18 10 -21 6 -4 9 -1 8 7 -2 8 4 12 15 10 9 -2
17 2 17 8 0 5 -11 10 -25 10 -15 0 -25 -6 -25 -14z"/>
<path d="M1771 1026 c9 -9 69 -14 69 -5 0 5 -16 9 -37 9 -20 0 -34 -2 -32 -4z"/>
<path d="M1945 1011 c-8 -13 5 -61 16 -61 12 0 12 57 0 65 -5 3 -12 1 -16 -4z"/>
<path d="M2321 980 l1 -45 10 34 c6 23 6 37 -1 44 -8 8 -11 -2 -10 -33z"/>
<path d="M965 1001 c-3 -5 -1 -12 5 -16 5 -3 10 1 10 9 0 18 -6 21 -15 7z"/>
<path d="M1119 999 c-1 -8 -1 -74 0 -146 1 -90 -2 -133 -9 -133 -6 0 -8 -4 -5
-10 5 -8 72 -8 140 -1 12 1 14 101 3 101 -5 0 -8 -13 -8 -30 0 -21 -4 -28 -14
-24 -8 3 -16 -3 -19 -15 -4 -15 -12 -19 -38 -17 l-34 3 -1 136 c0 76 -4 140
-7 144 -4 3 -8 0 -8 -8z"/>
<path d="M500 990 c0 -5 5 -10 11 -10 5 0 7 5 4 10 -3 6 -8 10 -11 10 -2 0 -4
-4 -4 -10z"/>
<path d="M1390 991 c0 -5 6 -12 13 -14 6 -3 -5 -6 -25 -6 -43 -1 -53 -20 -43
-81 6 -36 4 -41 -17 -49 -23 -10 -23 -10 5 -10 27 -1 27 0 27 60 l0 61 33 -4
c28 -3 32 0 35 25 2 19 -1 27 -12 27 -9 0 -16 -4 -16 -9z"/>
<path d="M1724 991 c3 -5 17 -8 31 -8 14 0 25 3 25 8 0 5 -14 9 -31 9 -16 0
-28 -4 -25 -9z"/>
<path d="M930 946 c0 -14 5 -26 10 -26 6 0 10 7 10 15 0 8 0 18 1 22 0 4 -4 9
-10 11 -6 2 -11 -8 -11 -22z"/>
<path d="M1510 960 c19 -13 30 -13 30 0 0 6 -10 10 -22 10 -19 0 -20 -2 -8
-10z"/>
<path d="M1595 960 c3 -5 28 -10 56 -10 27 0 49 5 49 10 0 6 -25 10 -56 10
-34 0 -53 -4 -49 -10z"/>
<path d="M1886 952 c-4 -12 -3 -29 2 -38 9 -15 10 -15 16 4 4 12 3 29 -2 38
-9 15 -10 15 -16 -4z"/>
<path d="M1459 949 c0 -8 -2 -39 -5 -69 -6 -68 6 -252 15 -227 8 23 5 296 -3
304 -3 4 -6 0 -7 -8z"/>
<path d="M1980 929 c0 -12 7 -15 24 -12 19 4 28 -1 39 -23 l15 -29 7 28 c4 15
12 27 19 27 14 0 16 -18 19 -173 2 -115 2 -117 -20 -117 -15 0 -23 6 -23 18 0
9 -5 24 -10 32 -7 12 -9 11 -8 -5 1 -11 -2 -29 -5 -41 -7 -20 -4 -21 78 -22
76 -1 102 6 76 22 -5 3 -10 69 -10 146 -2 134 -1 140 18 140 16 0 22 -9 27
-40 4 -22 10 -37 14 -35 5 3 10 -12 13 -32 7 -51 5 -83 -6 -83 -5 0 -7 11 -5
25 3 14 1 28 -3 31 -9 5 -10 -12 -11 -113 0 -25 -5 -43 -12 -43 -6 0 -3 -5 7
-11 9 -5 22 -7 27 -4 6 3 10 1 10 -6 0 -7 3 -10 6 -6 4 3 7 81 8 172 l1 166
-148 2 c-129 2 -147 0 -147 -14z m183 -31 c4 -18 3 -185 -2 -255 -1 -7 -10
-13 -21 -13 -19 0 -20 7 -21 118 -1 122 -1 139 6 160 7 20 32 14 38 -10z m97
-29 c0 -5 -4 -9 -10 -9 -5 0 -10 7 -10 16 0 8 5 12 10 9 6 -3 10 -10 10 -16z
m-4 -189 c0 -16 -5 -25 -9 -21 -5 5 -6 18 -2 30 9 29 13 26 11 -9z"/>
<path d="M747 911 c-4 -17 -3 -21 5 -13 5 5 8 16 6 23 -3 8 -7 3 -11 -10z"/>
<path d="M840 864 c0 -27 -5 -56 -10 -64 -5 -8 -10 -10 -10 -5 0 6 -5 3 -10
-5 -5 -8 -7 -25 -4 -36 3 -12 1 -25 -5 -28 -7 -4 -6 -16 1 -36 5 -17 14 -28
18 -25 4 3 62 6 128 7 113 2 121 3 124 23 2 11 1 31 -3 45 -6 22 -7 20 -8 -12
l-1 -38 -52 3 c-46 3 -53 6 -56 26 -2 14 -9 21 -17 17 -7 -2 -16 5 -20 17 -7
22 -8 21 -12 -3 -3 -14 -10 -28 -17 -32 -8 -6 -8 -8 2 -8 6 0 12 -5 12 -11 0
-6 -7 -9 -16 -7 -8 2 -14 7 -14 13 1 5 -6 12 -16 15 -24 9 -26 38 -4 50 9 5
20 6 24 3 3 -3 6 -1 6 5 0 5 -4 12 -9 14 -6 2 -12 27 -14 56 -5 68 -17 79 -17
16z"/>
<path d="M1242 890 c0 -14 2 -19 5 -12 2 6 2 18 0 25 -3 6 -5 1 -5 -13z"/>
<path d="M871 863 c-1 -23 4 -33 14 -33 8 0 15 -9 15 -19 0 -11 5 -23 10 -26
6 -3 10 0 10 7 0 10 2 10 9 -1 8 -12 11 -12 24 0 20 21 -1 49 -36 49 -19 0
-28 7 -35 28 l-10 27 -1 -32z"/>
<path d="M1515 870 c-4 -6 3 -10 14 -10 25 0 27 6 6 13 -8 4 -17 2 -20 -3z"/>
<path d="M1738 863 c7 -3 16 -2 19 1 4 3 -2 6 -13 5 -11 0 -14 -3 -6 -6z"/>
<path d="M1913 852 c-8 -14 -7 -23 3 -37 8 -10 14 -17 15 -14 0 2 2 13 4 23 6
31 -8 49 -22 28z"/>
<path d="M2045 849 c-4 -6 -5 -12 -2 -15 2 -3 7 2 10 11 7 17 1 20 -8 4z"/>
<path d="M985 840 c-3 -5 3 -10 14 -10 12 0 21 5 21 10 0 6 -6 10 -14 10 -8 0
-18 -4 -21 -10z"/>
<path d="M1245 839 c-4 -6 -5 -12 -2 -15 2 -3 7 2 10 11 7 17 1 20 -8 4z"/>
<path d="M1979 838 c0 -7 -1 -44 -2 -81 l-1 -68 -31 5 c-16 2 -39 1 -50 -4
-18 -7 -19 -8 -2 -15 9 -4 33 -4 52 -1 31 6 35 4 35 -14 0 -11 5 -20 10 -20
13 0 13 23 0 36 -7 7 -3 14 13 23 19 10 23 19 19 39 -5 24 -6 25 -13 7 -7 -20
-8 -20 -8 0 -1 11 6 30 14 42 13 19 13 23 1 30 -8 4 -15 12 -15 18 1 15 -21
18 -22 3z"/>
<path d="M752 805 c0 -16 2 -22 5 -12 2 9 2 23 0 30 -3 6 -5 -1 -5 -18z"/>
<path d="M1355 811 c-3 -5 -1 -12 4 -16 14 -8 62 5 55 16 -7 12 -51 12 -59 0z"/>
<path d="M1520 799 c0 -5 5 -7 10 -4 6 3 10 8 10 11 0 2 -4 4 -10 4 -5 0 -10
-5 -10 -11z"/>
<path d="M1644 801 c5 -8 56 -3 56 5 0 2 -14 4 -31 4 -16 0 -28 -4 -25 -9z"/>
<path d="M1830 763 c0 -24 3 -33 9 -25 7 12 4 62 -5 62 -2 0 -4 -17 -4 -37z"/>
<path d="M1860 783 c0 -11 -3 -35 -6 -52 -5 -24 -3 -31 10 -31 13 0 15 8 9 48
-6 50 -13 68 -13 35z"/>
<path d="M2350 710 c0 -11 2 -20 4 -20 2 0 6 9 9 20 3 11 1 20 -4 20 -5 0 -9
-9 -9 -20z"/>
<path d="M1768 713 c7 -3 16 -2 19 1 4 3 -2 6 -13 5 -11 0 -14 -3 -6 -6z"/>
<path d="M1307 703 c-4 -3 -7 -13 -7 -21 0 -18 13 -7 16 13 2 17 1 18 -9 8z"/>
<path d="M1026 642 c-4 -7 -11 -10 -15 -8 -4 3 -21 2 -37 -3 l-28 -7 31 -16
c18 -9 33 -12 35 -7 2 5 15 10 31 11 27 2 39 18 13 18 -8 0 -16 5 -18 12 -3 9
-6 9 -12 0z"/>
<path d="M1881 633 c-7 -8 -11 -16 -9 -18 10 -10 79 -8 90 3 9 9 4 12 -24 12
-20 0 -38 4 -40 9 -1 5 -9 2 -17 -6z"/>
<path d="M793 633 c-13 -2 -23 -9 -23 -15 0 -5 8 -7 17 -4 9 4 20 1 25 -6 5
-9 8 -6 8 10 0 12 -1 21 -2 21 -2 -1 -13 -4 -25 -6z"/>
<path d="M2719 611 c-31 -31 -36 -59 -17 -94 41 -78 159 -52 158 35 -1 37 -14
59 -47 76 -35 19 -63 14 -94 -17z m104 -8 c31 -36 22 -93 -18 -111 -67 -31
-127 56 -75 108 25 25 72 26 93 3z"/>
<path d="M2736 571 c-4 -5 -2 -12 3 -15 5 -4 12 -2 15 3 4 5 2 12 -3 15 -5 4
-12 2 -15 -3z"/>
<path d="M2800 566 c0 -9 5 -16 10 -16 6 0 10 4 10 9 0 6 -4 13 -10 16 -5 3
-10 -1 -10 -9z"/>
<path d="M2744 528 c-3 -4 6 -10 20 -14 25 -6 46 1 46 15 0 10 -60 9 -66 -1z"/>
<path d="M876 620 c7 -7 19 -7 35 -1 23 9 22 10 -10 10 -24 1 -32 -2 -25 -9z"/>
<path d="M1452 613 c-6 -11 -7 -25 -2 -33 5 -8 6 -19 3 -25 -3 -5 4 0 17 12
21 19 21 23 7 43 -15 21 -16 21 -25 3z"/>
<path d="M1820 626 c0 -9 30 -14 35 -6 4 6 -3 10 -14 10 -12 0 -21 -2 -21 -4z"/>
<path d="M1110 602 c-25 -9 6 -22 51 -22 36 0 49 4 47 12 -4 11 -73 18 -98 10z"/>
<path d="M1226 591 c-4 -5 3 -7 14 -4 11 3 20 1 20 -5 0 -6 9 -8 20 -5 11 3
17 9 14 14 -7 12 -61 12 -68 0z"/>
<path d="M1758 588 c17 -8 26 -8 34 0 9 9 4 12 -22 11 -33 0 -34 -1 -12 -11z"/>
<path d="M1921 563 c-1 -12 -8 -26 -17 -31 -14 -8 -13 -10 5 -15 27 -7 32 3
21 39 -7 24 -8 25 -9 7z"/>
<path d="M814 543 c1 -19 5 -28 10 -23 6 6 5 18 -1 32 -10 21 -10 21 -9 -9z"/>
<path d="M1390 560 c0 -5 5 -10 11 -10 5 0 7 5 4 10 -3 6 -8 10 -11 10 -2 0
-4 -4 -4 -10z"/>
<path d="M1536 558 c3 -5 10 -6 15 -3 13 9 11 12 -6 12 -8 0 -12 -4 -9 -9z"/>
<path d="M985 530 c3 -5 13 -10 21 -10 8 0 14 5 14 10 0 6 -9 10 -21 10 -11 0
-17 -4 -14 -10z"/>
<path d="M1055 530 c3 -5 8 -10 11 -10 2 0 4 5 4 10 0 6 -5 10 -11 10 -5 0 -7
-4 -4 -10z"/>
<path d="M1300 529 c0 -5 5 -7 10 -4 6 3 10 8 10 11 0 2 -4 4 -10 4 -5 0 -10
-5 -10 -11z"/>
<path d="M1795 530 c-4 -6 5 -10 20 -10 15 0 24 4 20 10 -3 6 -12 10 -20 10
-8 0 -17 -4 -20 -10z"/>
<path d="M2102 529 c2 -6 8 -10 13 -10 5 0 11 4 13 10 2 6 -4 11 -13 11 -9 0
-15 -5 -13 -11z"/>
<path d="M986 465 c-11 -8 -39 -15 -62 -15 -44 0 -68 -15 -37 -23 10 -3 265
-4 567 -3 430 1 550 4 554 14 2 8 -9 12 -37 13 -57 2 -58 2 -72 17 -10 9 -64
12 -201 12 -160 0 -188 -2 -188 -15 0 -12 -14 -15 -64 -15 -44 0 -67 5 -76 15
-18 22 -356 21 -384 0z"/>
<path d="M778 373 c7 -3 16 -2 19 1 4 3 -2 6 -13 5 -11 0 -14 -3 -6 -6z"/>
<path d="M1908 343 c6 -2 18 -2 25 0 6 3 1 5 -13 5 -14 0 -19 -2 -12 -5z"/>
</g>
</svg>
